# Blender v2.83.2 OBJ File: ''
# www.blender.org
mtllib arc.mtl
o Cube
v 1.000000 1.000000 -1.000000
v 1.000000 -1.000000 -1.000000
v 1.000000 1.000000 1.000000
v -1.000000 1.000000 -1.000000
v -1.000000 -1.000000 -1.000000
v -1.000000 1.000000 1.000000
v -1.000000 0.961570 0.609817
v -1.000000 0.971178 0.707362
v 1.000000 0.961570 0.609817
v 1.000000 0.990392 0.902453
v -1.000000 0.847758 0.234631
v 1.000000 0.847758 0.234631
v -1.000000 0.662938 -0.111143
v 1.000000 0.662938 -0.111143
v -1.000000 0.414212 -0.414215
v 1.000000 0.414212 -0.414215
v -1.000000 0.111138 -0.662941
v 1.000000 0.111138 -0.662941
v -1.000000 -0.234636 -0.847760
v 1.000000 -0.234636 -0.847760
v -1.000000 -0.609822 -0.961571
v 1.000000 -0.609822 -0.961571
v -1.000000 -0.902456 -0.990393
v 1.000000 -0.707367 -0.971178
vt 0.625000 0.500000
vt 0.875000 0.500000
vt 0.875000 0.750000
vt 0.625000 0.750000
vt 0.375000 0.250000
vt 0.625000 0.250000
vt 0.375000 0.500000
vt 0.031250 0.625000
vt 0.031250 0.875000
vt 0.062500 0.875000
vt 0.062500 0.625000
vt 0.623799 0.737807
vt 0.620196 0.701227
vt 0.605970 0.654329
vt 0.582867 0.611107
vt 0.551776 0.573223
vt 0.513892 0.542132
vt 0.470670 0.519030
vt 0.423772 0.504804
vt 0.411579 0.503603
vt 0.187500 0.625000
vt 0.187500 0.875000
vt 0.218750 0.875000
vt 0.218750 0.625000
vt 0.000000 0.625000
vt 0.000000 0.875000
vt 0.023437 0.875000
vt 0.007813 0.625000
vt 0.242187 0.875000
vt 0.250000 0.875000
vt 0.250000 0.625000
vt 0.226562 0.625000
vt 0.156250 0.625000
vt 0.156250 0.875000
vt 0.093750 0.625000
vt 0.093750 0.875000
vt 0.125000 0.875000
vt 0.125000 0.625000
vt 0.387193 0.248799
vt 0.423772 0.245196
vt 0.470671 0.230970
vt 0.513892 0.207868
vt 0.551777 0.176777
vt 0.582867 0.138893
vt 0.605970 0.095671
vt 0.620196 0.048773
vt 0.621397 0.036580
vt 0.625000 0.000000
vn 0.0000 1.0000 0.0000
vn 0.0000 0.0000 -1.0000
vn -0.0000 -0.2903 0.9569
vn 1.0000 0.0000 -0.0000
vn -0.0000 -0.9569 0.2903
vn 0.0000 -0.0980 0.9952
vn -0.0000 -0.9952 0.0980
vn -0.0000 -0.8819 0.4714
vn -0.0000 -0.6344 0.7730
vn -0.0000 -0.4714 0.8819
vn -1.0000 -0.0000 0.0000
vn -0.0000 -0.7730 0.6344
usemtl Material
s off
f 1/1/1 4/2/1 6/3/1 3/4/1
f 5/5/2 4/6/2 1/1/2 2/7/2
f 21/8/3 22/9/3 20/10/3 19/11/3
f 3/4/4 10/12/4 9/13/4 12/14/4 14/15/4 16/16/4 18/17/4 20/18/4 22/19/4 24/20/4 2/7/4 1/1/4
f 11/21/5 12/22/5 9/23/5 7/24/5
f 5/25/6 2/26/6 24/27/6 22/9/6 21/8/6 23/28/6
f 7/24/7 9/23/7 10/29/7 3/30/7 6/31/7 8/32/7
f 13/33/8 14/34/8 12/22/8 11/21/8
f 17/35/9 18/36/9 16/37/9 15/38/9
f 19/11/10 20/10/10 18/36/10 17/35/10
f 5/5/11 23/39/11 21/40/11 19/41/11 17/42/11 15/43/11 13/44/11 11/45/11 7/46/11 8/47/11 6/48/11 4/6/11
f 15/38/12 16/37/12 14/34/12 13/33/12
l 10 3
o Cylinder
v -2.000000 -1.000000 -1.000000
v 2.000000 -1.000000 -1.000000
v -2.000000 -1.390181 -0.961571
v 2.000000 -1.390181 -0.961571
v -2.000000 -1.765367 -0.847759
v 2.000000 -1.765367 -0.847759
v -2.000000 -2.111140 -0.662939
v 2.000000 -2.111141 -0.662939
v -2.000000 -2.414213 -0.414214
v 2.000000 -2.414214 -0.414214
v -2.000000 -2.662939 -0.111140
v 2.000000 -2.662940 -0.111140
v -2.000000 -2.847759 0.234633
v 2.000000 -2.847759 0.234633
v -2.000000 -2.961570 0.609819
v 2.000000 -2.961571 0.609819
v -2.000000 -3.000000 1.000000
v 2.000000 -3.000000 1.000000
v -2.000000 -2.961571 1.390180
v 2.000000 -2.961571 1.390180
v -2.000000 -2.847759 1.765367
v 2.000000 -2.847759 1.765367
v -2.000000 -2.662939 2.111140
v 2.000000 -2.662940 2.111140
v -2.000000 -2.414213 2.414214
v 2.000000 -2.414214 2.414214
v -2.000000 -2.111140 2.662939
v 2.000000 -2.111140 2.662939
v -2.000000 -1.765367 2.847759
v 2.000000 -1.765367 2.847759
v -2.000000 -1.390180 2.961571
v 2.000000 -1.390180 2.961571
v -2.000000 -0.999999 3.000000
v 2.000000 -0.999999 3.000000
v -2.000000 -0.609818 2.961570
v 2.000000 -0.609819 2.961570
v -2.000000 -0.234632 2.847759
v 2.000000 -0.234632 2.847759
v -2.000000 0.111142 2.662939
v 2.000000 0.111141 2.662939
v -2.000000 0.414215 2.414213
v 2.000000 0.414214 2.414213
v -2.000000 0.662940 2.111139
v 2.000000 0.662940 2.111139
v -2.000000 0.847760 1.765365
v 2.000000 0.847760 1.765365
v -2.000000 0.961571 1.390179
v 2.000000 0.961571 1.390179
v -2.000000 1.000000 0.999998
v 2.000000 1.000000 0.999998
v -2.000000 0.961570 0.609817
v 2.000000 0.961570 0.609817
v -2.000000 0.847758 0.234631
v 2.000000 0.847758 0.234631
v -2.000000 0.662938 -0.111143
v 2.000000 0.662938 -0.111143
v -2.000000 0.414212 -0.414215
v 2.000000 0.414212 -0.414215
v -2.000000 0.111138 -0.662941
v 2.000000 0.111138 -0.662941
v -2.000000 -0.234636 -0.847760
v 2.000000 -0.234636 -0.847760
v -2.000000 -0.609822 -0.961571
v 2.000000 -0.609822 -0.961571
vt 1.000000 0.500000
vt 1.000000 1.000000
vt 0.968750 1.000000
vt 0.968750 0.500000
vt 0.937500 1.000000
vt 0.937500 0.500000
vt 0.906250 1.000000
vt 0.906250 0.500000
vt 0.875000 1.000000
vt 0.875000 0.500000
vt 0.843750 1.000000
vt 0.843750 0.500000
vt 0.812500 1.000000
vt 0.812500 0.500000
vt 0.781250 1.000000
vt 0.781250 0.500000
vt 0.750000 1.000000
vt 0.750000 0.500000
vt 0.718750 1.000000
vt 0.718750 0.500000
vt 0.687500 1.000000
vt 0.687500 0.500000
vt 0.656250 1.000000
vt 0.656250 0.500000
vt 0.625000 1.000000
vt 0.625000 0.500000
vt 0.593750 1.000000
vt 0.593750 0.500000
vt 0.562500 1.000000
vt 0.562500 0.500000
vt 0.531250 1.000000
vt 0.531250 0.500000
vt 0.500000 1.000000
vt 0.500000 0.500000
vt 0.468750 1.000000
vt 0.468750 0.500000
vt 0.437500 1.000000
vt 0.437500 0.500000
vt 0.406250 1.000000
vt 0.406250 0.500000
vt 0.375000 1.000000
vt 0.375000 0.500000
vt 0.343750 1.000000
vt 0.343750 0.500000
vt 0.312500 1.000000
vt 0.312500 0.500000
vt 0.281250 1.000000
vt 0.281250 0.500000
vt 0.250000 1.000000
vt 0.250000 0.500000
vt 0.218750 1.000000
vt 0.218750 0.500000
vt 0.187500 1.000000
vt 0.187500 0.500000
vt 0.156250 1.000000
vt 0.156250 0.500000
vt 0.125000 1.000000
vt 0.125000 0.500000
vt 0.093750 1.000000
vt 0.093750 0.500000
vt 0.062500 1.000000
vt 0.062500 0.500000
vt 0.296822 0.485388
vt 0.250000 0.490000
vt 0.203179 0.485389
vt 0.158156 0.471731
vt 0.116663 0.449553
vt 0.080295 0.419706
vt 0.050447 0.383337
vt 0.028269 0.341844
vt 0.014612 0.296822
vt 0.010000 0.250000
vt 0.014611 0.203179
vt 0.028269 0.158156
vt 0.050447 0.116663
vt 0.080294 0.080294
vt 0.116663 0.050447
vt 0.158156 0.028269
vt 0.203178 0.014612
vt 0.250000 0.010000
vt 0.296822 0.014612
vt 0.341844 0.028269
vt 0.383337 0.050447
vt 0.419706 0.080294
vt 0.449553 0.116663
vt 0.471731 0.158156
vt 0.485388 0.203178
vt 0.490000 0.250000
vt 0.485388 0.296822
vt 0.471731 0.341844
vt 0.449553 0.383337
vt 0.419706 0.419706
vt 0.383337 0.449553
vt 0.341844 0.471731
vt 0.031250 1.000000
vt 0.031250 0.500000
vt 0.000000 1.000000
vt 0.000000 0.500000
vt 0.750000 0.490000
vt 0.796822 0.485388
vt 0.841844 0.471731
vt 0.883337 0.449553
vt 0.919706 0.419706
vt 0.949553 0.383337
vt 0.971731 0.341844
vt 0.985388 0.296822
vt 0.990000 0.250000
vt 0.985388 0.203178
vt 0.971731 0.158156
vt 0.949553 0.116663
vt 0.919706 0.080294
vt 0.883337 0.050447
vt 0.841844 0.028269
vt 0.796822 0.014612
vt 0.750000 0.010000
vt 0.703178 0.014612
vt 0.658156 0.028269
vt 0.616663 0.050447
vt 0.580294 0.080294
vt 0.550447 0.116663
vt 0.528269 0.158156
vt 0.514611 0.203179
vt 0.510000 0.250000
vt 0.514612 0.296822
vt 0.528269 0.341844
vt 0.550447 0.383337
vt 0.580295 0.419706
vt 0.616663 0.449553
vt 0.658156 0.471731
vt 0.703179 0.485389
vn -0.0000 -0.0980 -0.9952
vn -0.0000 -0.2903 -0.9569
vn -0.0000 -0.4714 -0.8819
vn -0.0000 -0.6344 -0.7730
vn -0.0000 -0.7730 -0.6344
vn -0.0000 -0.8819 -0.4714
vn -0.0000 -0.9569 -0.2903
vn -0.0000 -0.9952 -0.0980
vn -0.0000 -0.9952 0.0980
vn -0.0000 -0.9569 0.2903
vn -0.0000 -0.8819 0.4714
vn -0.0000 -0.7730 0.6344
vn -0.0000 -0.6344 0.7730
vn 0.0000 -0.4714 0.8819
vn 0.0000 -0.2903 0.9569
vn -0.0000 -0.0980 0.9952
vn -0.0000 0.0980 0.9952
vn 0.0000 0.2903 0.9569
vn 0.0000 0.4714 0.8819
vn 0.0000 0.6344 0.7730
vn 0.0000 0.7730 0.6344
vn 0.0000 0.8819 0.4714
vn 0.0000 0.9569 0.2903
vn 0.0000 0.9952 0.0980
vn 0.0000 0.9952 -0.0980
vn 0.0000 0.9569 -0.2903
vn 0.0000 0.8819 -0.4714
vn 0.0000 0.7730 -0.6344
vn 0.0000 0.6344 -0.7730
vn 0.0000 0.4714 -0.8819
vn 1.0000 -0.0000 0.0000
vn 0.0000 0.2903 -0.9569
vn 0.0000 0.0980 -0.9952
vn -1.0000 0.0000 -0.0000
usemtl None
s off
f 25/49/13 26/50/13 28/51/13 27/52/13
f 27/52/14 28/51/14 30/53/14 29/54/14
f 29/54/15 30/53/15 32/55/15 31/56/15
f 31/56/16 32/55/16 34/57/16 33/58/16
f 33/58/17 34/57/17 36/59/17 35/60/17
f 35/60/18 36/59/18 38/61/18 37/62/18
f 37/62/19 38/61/19 40/63/19 39/64/19
f 39/64/20 40/63/20 42/65/20 41/66/20
f 41/66/21 42/65/21 44/67/21 43/68/21
f 43/68/22 44/67/22 46/69/22 45/70/22
f 45/70/23 46/69/23 48/71/23 47/72/23
f 47/72/24 48/71/24 50/73/24 49/74/24
f 49/74/25 50/73/25 52/75/25 51/76/25
f 51/76/26 52/75/26 54/77/26 53/78/26
f 53/78/27 54/77/27 56/79/27 55/80/27
f 55/80/28 56/79/28 58/81/28 57/82/28
f 57/82/29 58/81/29 60/83/29 59/84/29
f 59/84/30 60/83/30 62/85/30 61/86/30
f 61/86/31 62/85/31 64/87/31 63/88/31
f 63/88/32 64/87/32 66/89/32 65/90/32
f 65/90/33 66/89/33 68/91/33 67/92/33
f 67/92/34 68/91/34 70/93/34 69/94/34
f 69/94/35 70/93/35 72/95/35 71/96/35
f 71/96/36 72/95/36 74/97/36 73/98/36
f 73/98/37 74/97/37 76/99/37 75/100/37
f 75/100/38 76/99/38 78/101/38 77/102/38
f 77/102/39 78/101/39 80/103/39 79/104/39
f 79/104/40 80/103/40 82/105/40 81/106/40
f 81/106/41 82/105/41 84/107/41 83/108/41
f 83/108/42 84/107/42 86/109/42 85/110/42
f 28/111/43 26/112/43 88/113/43 86/114/43 84/115/43 82/116/43 80/117/43 78/118/43 76/119/43 74/120/43 72/121/43 70/122/43 68/123/43 66/124/43 64/125/43 62/126/43 60/127/43 58/128/43 56/129/43 54/130/43 52/131/43 50/132/43 48/133/43 46/134/43 44/135/43 42/136/43 40/137/43 38/138/43 36/139/43 34/140/43 32/141/43 30/142/43
f 85/110/44 86/109/44 88/143/44 87/144/44
f 87/144/45 88/143/45 26/145/45 25/146/45
f 25/147/46 27/148/46 29/149/46 31/150/46 33/151/46 35/152/46 37/153/46 39/154/46 41/155/46 43/156/46 45/157/46 47/158/46 49/159/46 51/160/46 53/161/46 55/162/46 57/163/46 59/164/46 61/165/46 63/166/46 65/167/46 67/168/46 69/169/46 71/170/46 73/171/46 75/172/46 77/173/46 79/174/46 81/175/46 83/176/46 85/177/46 87/178/46
